<svg height="512" viewBox="0 0 58.92 59" width="512" xmlns="http://www.w3.org/2000/svg">
  <g id="Layer_2" data-name="Layer 2">
    <g id="Layer_1-2" data-name="Layer 1">
      <path id="palette" d="m50.27 8.64a29.52 29.52 0 0 0 -43.01 1.36 29.78 29.78 0 0 0 .29 39.3 29.57 29.57 0 0 0 28.33 9 6.33 6.33 0 0 0 3.06-1.71 6.41 6.41 0 0 0 0-9.06l-1.66-1.66a6 6 0 0 1 8.49-8.48l1.66 1.61a6.4 6.4 0 0 0 10.76-3 29.4 29.4 0 0 0 -7.92-27.36zm-28.51 33a5 5 0 0 1 -7.07 0 5 5 0 0 1 3.54-8.54 5 5 0 0 1 3.53 8.54zm1.24-18.5a5 5 0 0 1 -7.07 0 5 5 0 0 1 3.54-8.54 5 5 0 0 1 3.53 8.54zm18.52-.28a5 5 0 0 1 -7.07 0 5 5 0 1 1 7.07 0z" fill="#656565"/>
    </g>
  </g>
</svg>
